# xmcd CD database file
#
# Track frame offsets:
#	150
#	14861
#	25128
#	40212
#	56532
#	66872
#	81165
#	93989
#	105879
#	115296
#	128583
#	142281
#	154269
#	168413
#	184232
#	194273
#	210095
#	222974
#	239051
#	251603
#	266760
#	280980
#	292254
#	307042
#
# Disc length: 4313 seconds
#
# Revision: 0
# Processed by: cddbd v1.5.2PL0 Copyright (c) Steve Scherf et al.
# Submitted via: CDex 1.70beta2
#
DISCID=6f10d718
DTITLE=Skerkowski, Katie - Cdn. - OVM - ON - Katie Sings Country
DYEAR=1900
DGENRE=Country
TTITLE0=Harper Valley PTA
TTITLE1=You Ain't Woman Enough
TTITLE2=Rose garden
TTITLE3=You Neede Me
TTITLE4=Back In My Baby's Arms
TTITLE5=Coat of Many Coloura
TTITLE6=Crazy
TTITLE7=Sweet Dreams
TTITLE8=Walkin' After Midnight
TTITLE9=I Fall To Peices
TTITLE10=D I V O R C E
TTITLE11=Green Green Greass of Home
TTITLE12=She's Got You
TTITLE13=Down To My Last Teardrop
TTITLE14=Snowbird
TTITLE15=Passionate Kisses
TTITLE16=You Belong To Me
TTITLE17=I Feel Lucky
TTITLE18=Stand By Your Man
TTITLE19=Delta Dawn
TTITLE20=Coal Miner's Daughter
TTITLE21=Leavin' On Your Mind
TTITLE22=Down At the Twist and Shout
TTITLE23=Daddy's Hands
EXTD=
EXTT0=
EXTT1=
EXTT2=
EXTT3=
EXTT4=
EXTT5=
EXTT6=
EXTT7=
EXTT8=
EXTT9=
EXTT10=
EXTT11=
EXTT12=
EXTT13=
EXTT14=
EXTT15=
EXTT16=
EXTT17=
EXTT18=
EXTT19=
EXTT20=
EXTT21=
EXTT22=
EXTT23=
PLAYORDER=
